<svg id="Layer_2" data-name="Layer 2" xmlns="http://www.w3.org/2000/svg" viewBox="0 0 715 250"><defs><style>.cls-1,.cls-3{opacity:0.7;}.cls-2{fill:#555;}.cls-3,.cls-5{fill:none;stroke-miterlimit:10;}.cls-3{stroke:#555;stroke-width:1.5px;}.cls-4{fill:#b7dfd5;}.cls-5{stroke:#b7dfd5;stroke-linecap:round;stroke-width:6.77px;}</style></defs><title>Wordmark</title><g class="cls-1"><path class="cls-2" d="M231.58,224.63q0,4.41-2,6.48t-6,2.07h-2V245h-1.91V216.42h3.91q4.18,0,6.11,2T231.58,224.63Zm-10,6.8h1.91q3.36,0,4.77-1.58t1.41-5.21q0-3.46-1.46-5a6,6,0,0,0-4.5-1.49h-2.13v13.24Z"/><path class="cls-2" d="M271.82,245h-1.91v-14h-10v14H258V216.42h1.91V229.1h10V216.42h1.91V245Z"/><path class="cls-2" d="M315.58,230.66q0,7.09-2.12,10.9a6.82,6.82,0,0,1-12.26,0q-2.09-3.84-2.09-10.91,0-7.38,2.07-11A6.72,6.72,0,0,1,307.4,216a6.62,6.62,0,0,1,6.08,3.8Q315.58,223.61,315.58,230.66Zm-14.47,0q0,6.37,1.59,9.62t4.64,3.25q3.07,0,4.66-3.22t1.59-9.65q0-6.35-1.56-9.58t-4.63-3.23q-3.15,0-4.72,3.27T301.11,230.66Z"/><path class="cls-2" d="M347.62,245H345.7V218.26H340v-1.84H353.3v1.84h-5.68V245Z"/><path class="cls-2" d="M394.27,230.66q0,7.09-2.12,10.9a6.82,6.82,0,0,1-12.26,0q-2.09-3.84-2.09-10.91,0-7.38,2.07-11a6.72,6.72,0,0,1,6.21-3.61,6.62,6.62,0,0,1,6.08,3.8Q394.27,223.61,394.27,230.66Zm-14.47,0q0,6.37,1.59,9.62t4.64,3.25q3.07,0,4.66-3.22t1.59-9.65q0-6.35-1.56-9.58t-4.63-3.23q-3.15,0-4.72,3.27T379.79,230.66Z"/><path class="cls-2" d="M431,230.58h6.25V244.1a18.52,18.52,0,0,1-6.78,1.27,8.2,8.2,0,0,1-7.25-3.91q-2.58-3.91-2.58-10.84t2.67-10.78a8.61,8.61,0,0,1,7.49-3.83,11.16,11.16,0,0,1,6.11,1.84L436,219.53a9.69,9.69,0,0,0-5.2-1.72,6.71,6.71,0,0,0-6.06,3.29q-2.06,3.29-2.06,9.56t2.08,9.5a6.56,6.56,0,0,0,5.89,3.37,13.38,13.38,0,0,0,4.67-.72V232.42H431v-1.84Z"/><path class="cls-2" d="M466.47,232.5V245h-1.91V216.42h3.91q4.18,0,6.11,2t1.93,5.9a10,10,0,0,1-1.05,4.88,6.5,6.5,0,0,1-3.54,2.87L477.58,245h-2.15L470.1,232.5h-3.63Zm0-1.76h2.68a5,5,0,0,0,4-1.6,7,7,0,0,0,1.41-4.77q0-3.22-1.44-4.65a6.21,6.21,0,0,0-4.52-1.43h-2.13v12.44Z"/><path class="cls-2" d="M514.35,245l-2.52-10.35H504.9L502.42,245h-2l6.88-28.55h2l7,28.55h-2Zm-3-12.29L508.86,222q-0.39-1.8-.61-3.4a30.82,30.82,0,0,1-.55,3.4l-2.44,10.64h6.11Z"/><path class="cls-2" d="M553.38,224.63q0,4.41-2,6.48t-6,2.07h-2V245h-1.91V216.42h3.91q4.18,0,6.11,2T553.38,224.63Zm-10,6.8h1.91q3.36,0,4.77-1.58t1.41-5.21q0-3.46-1.46-5a6,6,0,0,0-4.5-1.49h-2.13v13.24Z"/><path class="cls-2" d="M593.62,245h-1.91v-14h-10v14h-1.91V216.42h1.91V229.1h10V216.42h1.91V245Z"/><path class="cls-2" d="M625.47,231.17l4.65-14.75h2l-5.76,17.4V245h-1.91V233.83l-5.72-17.4h2Z"/></g><line class="cls-3" x1="215.5" y1="195.25" x2="633.08" y2="195.25"/><path class="cls-4" d="M443.46,53.27a3.84,3.84,0,0,1-.87-0.85,4.88,4.88,0,0,1-.57-1,5.6,5.6,0,0,1-.29-1.31A22.83,22.83,0,0,0,438.66,42a19.47,19.47,0,0,0-10-8.1,22.44,22.44,0,0,0-7.93-1.29c-0.72,0-1.45,0-2.2.12l-0.56,0h-0.23l-0.31,0c-0.42.05-.84,0.11-1.16,0.17a24.2,24.2,0,0,0-4.36,1.18A21,21,0,0,0,404,39.39a23.8,23.8,0,0,0-5.25,8.72c-0.28.85-.56,1.71-0.77,2.6-0.12.44-.21,0.89-0.3,1.35-0.05.22-.09,0.45-0.13,0.68l-0.11.6c-0.06.5-.16,1.07-0.19,1.51s-0.08.82-.09,1.29a23.11,23.11,0,0,0,0,2.74,26.73,26.73,0,0,0,3.22,10.8,47.16,47.16,0,0,0,7.3,9.95q2.19,2.34,4.63,4.58c1.61,1.5,3.3,2.91,5.09,4.44a136.11,136.11,0,0,1,10.51,9.9,71.1,71.1,0,0,1,9.24,11.77,49.06,49.06,0,0,1,6,14.14,51.54,51.54,0,0,1,1.25,7.53c0.12,1.26.19,2.51,0.22,3.75,0,0.62,0,1.24,0,1.86v1l0,0.87a30.73,30.73,0,0,1-4.73,14.93,36.62,36.62,0,0,1-10.43,10.65,48.37,48.37,0,0,1-25.94,8.11c-1.07,0-2.21,0-3.2-.05s-2.18-.14-3.24-0.28a39.66,39.66,0,0,1-6.19-1.25A32.44,32.44,0,0,1,380,166.24a26.65,26.65,0,0,1-7.33-8.59,28.21,28.21,0,0,1-2-4.81l-0.18-.6-0.09-.3,0-.15-0.06-.23L370,150.47l-0.25-1.07-0.2-1.2a32.69,32.69,0,0,1,1.25-15.89,33.61,33.61,0,0,1,4.66-9.06l1-1.23a1.88,1.88,0,0,1,1-.61,3,3,0,0,1,1-.07,3.29,3.29,0,0,1,.41.06l0.75,0.66s0.07,0.16.13,0.4a3.52,3.52,0,0,1,.14.93,1.92,1.92,0,0,1-.3,1l-0.78,1.12a29.39,29.39,0,0,0-3.68,8.09,27.91,27.91,0,0,0-.44,13.51l0.19,0.93,0.3,1.06,0.31,1.08,0.31,0.89a22.66,22.66,0,0,0,1.8,3.78,21.29,21.29,0,0,0,6,6.5c5.08,3.64,12.22,5.34,19.69,4.93a41.28,41.28,0,0,0,21.9-7.32,29.07,29.07,0,0,0,8.11-8.61,22.86,22.86,0,0,0,3.29-11.14l0-.87v-0.22c0-.07,0,0.17,0,0v-0.51c0-.54,0-1.09-0.06-1.63-0.05-1.08-.14-2.16-0.27-3.23a43.26,43.26,0,0,0-1.19-6.29,41.18,41.18,0,0,0-5.19-11.66c-4.69-7.3-11.32-13.7-18.11-19.68-7.12-6.08-14.17-13.08-18.56-21.84a34.52,34.52,0,0,1-3.72-14.08,30.73,30.73,0,0,1,.07-3.6c0-.58.12-1.23,0.19-1.84s0.17-1.05.25-1.59l0.18-.92c0.06-.28.11-0.56,0.18-0.84,0.13-.56.26-1.11,0.42-1.66,0.3-1.1.67-2.17,1.06-3.23a31,31,0,0,1,7.18-11.12A27.86,27.86,0,0,1,409.68,28a29.81,29.81,0,0,1,5.71-1.27c0.52-.07.93-0.1,1.34-0.14l0.31,0,0.22,0h0.17l0.68,0c0.9-.05,1.81,0,2.69,0a28.37,28.37,0,0,1,9.94,2.15,23.91,23.91,0,0,1,7.48,5,25.23,25.23,0,0,1,4.51,6.06,27.16,27.16,0,0,1,3,9.92,3.46,3.46,0,0,1-1.27,3.64Z"/><path class="cls-4" d="M474.26,128l-1.1-.6a12.78,12.78,0,0,0-2.79-1,8.28,8.28,0,0,0-4.51.21,10,10,0,0,0-4.85,3.94c-2.92,4.16-4.29,11.27-3.58,19.17a13.87,13.87,0,0,0,1.58,5,6.14,6.14,0,0,0,7.54,3.4,16.62,16.62,0,0,0,5.63-2.55,30,30,0,0,0,9.39-10.8,34.53,34.53,0,0,0,1.61-3.51c0.23-.61.46-1.22,0.66-1.84s0.39-1.24.59-2c0.76-2.75,1.49-5.59,2.21-8.46,1.44-5.77,2.84-11.73,4.23-17.83s2.59-12.39,3.85-18.77c2.48-12.75,5-26,6.89-39.39,0.24-1.67.46-3.33,0.65-5a43.73,43.73,0,0,0,.33-4.65c0-.29,0-0.63,0-0.5a2.26,2.26,0,0,0,.13.41,3.39,3.39,0,0,0,.33.59,3.59,3.59,0,0,0,1.23,1.1c-0.09.43,2.93,0.47,2.29,0.43a3.35,3.35,0,0,0,2.16-1.05,2.62,2.62,0,0,0,.48-0.63,0.25,0.25,0,1,1,0,.06l-0.13.4c-0.1.31-.19,0.68-0.29,1.05-0.38,1.51-.69,3.18-1,4.83-1.28,6.67-2.32,13.54-3.33,20.39-2,13.73-4,27.48-5.81,41.05l-2.65,20.17-2.31,19.72-1.09,9.63-0.27,2.38-0.07.59c0,0.15,0,0,0,0v0.15a1.86,1.86,0,0,0-.11-0.85,1.69,1.69,0,0,0-.58-0.75,1.37,1.37,0,0,0-.65-0.25,1.74,1.74,0,0,0-1.15.27,2,2,0,0,0-.88,1.24l0.11-1,0.27-2.35c0.37-3.13.73-6.21,1-9.28s0.68-6.09,1-9.1c0.63-6,1.33-11.88,2.19-17.54a20.33,20.33,0,0,1,.45-2.4,25.38,25.38,0,0,1,.91-2.71,27.31,27.31,0,0,1,2.48-4.84,14.82,14.82,0,0,1,3.91-4.12,11.27,11.27,0,0,1,6.72-2.14,9.58,9.58,0,0,1,4.44,1.1,9.39,9.39,0,0,1,3.29,2.83,10.69,10.69,0,0,1,1.57,3.06,14.59,14.59,0,0,1,.61,2.72,28.4,28.4,0,0,1,.14,4.64c0,1.4-.15,2.84-0.28,3.93-0.46,4.65-.74,9.08-0.8,13.23,0,1,0,2.05,0,3.05s0.1,2,.18,2.92a37.63,37.63,0,0,0,.76,5.38,13.31,13.31,0,0,0,1.63,4.19,2.61,2.61,0,0,0,1,.94l0.22,0.08s0.13,0,.06,0h0.29c0.18,0,.42,0,0.55,0l0.37,0c2.29-.2,4.08-2,5.19-3.78a18.73,18.73,0,0,0,2.14-5.1,31.31,31.31,0,0,0,.63-3.45c0.06-.79.06-1.17,0.06-1.14a2.5,2.5,0,0,1,4.94.8s0,0.53-.09,1.45a36.49,36.49,0,0,1-.68,4,26.1,26.1,0,0,1-2.53,6.38,14.79,14.79,0,0,1-3.11,3.81,11.28,11.28,0,0,1-5.8,2.71l-1,.1-0.36,0h-1.06l-0.34,0a7.12,7.12,0,0,1-1.36-.32,8.23,8.23,0,0,1-3.78-2.84,18.56,18.56,0,0,1-2.86-6.12,44.82,44.82,0,0,1-1.24-6.12,61.81,61.81,0,0,1-.59-6.41,124.59,124.59,0,0,1,.14-13.83l0.21-3.39c0.06-1.08.12-2.17,0.09-3.22,0-2.1-.67-4-2.53-4.12a4.34,4.34,0,0,0-2.87,1.11,8.76,8.76,0,0,0-2.09,2.82,25.44,25.44,0,0,0-1.24,3.17c-0.16.5-.32,1-0.44,1.42s-0.25,1.12-.39,1.79c-1,5.46-2.22,11.06-3.3,16.89s-2.15,11.87-3,18.07l-0.3,2.34-0.08.59,0,0.29,0,0.15s0,0.1-.06.34a3.37,3.37,0,0,1-1.5,2.2,3.54,3.54,0,0,1-2.28.51,3.9,3.9,0,0,1-1.75-.66,3.62,3.62,0,0,1-1.33-1.65,3.58,3.58,0,0,1-.25-1.43l0-.42,0.06-.6,0.23-2.39,1-9.66,4-40.05,2.14-20.6c0.73-6.9,1.52-13.83,2.42-20.75s1.81-13.84,3-20.81c0.31-1.75.66-3.49,1.12-5.34,0.12-.47.25-0.94,0.4-1.45,0.08-.26.17-0.53,0.28-0.83a8.55,8.55,0,0,1,.51-1.14,5.16,5.16,0,0,1,.87-1.18,4,4,0,0,1,2.5-1.26c-0.55-.06,2.67,0,2.67.49a4.33,4.33,0,0,1,1.5,1.35,4.72,4.72,0,0,1,.49.9,5.64,5.64,0,0,1,.32,1,10.73,10.73,0,0,1,.2,2.1,49.88,49.88,0,0,1-.4,5.66c-0.21,1.77-.45,3.51-0.7,5.23-2.21,13.71-5.12,26.88-7.91,39.67-1.37,6.4-2.79,12.67-4.17,18.81s-2.53,12.2-3.79,18.09c-0.62,3-1.36,5.82-2.09,8.7-0.17.69-.4,1.47-0.65,2.23s-0.51,1.5-.79,2.23a42,42,0,0,1-1.92,4.28,36.32,36.32,0,0,1-11.88,13.48,24.52,24.52,0,0,1-8.21,3.58,14.38,14.38,0,0,1-9.42-.88,13,13,0,0,1-3.86-2.93,19.11,19.11,0,0,1-2.6-3.67,19.84,19.84,0,0,1-1.58-3.81,17.38,17.38,0,0,1-.75-3.79,42,42,0,0,1,.1-6.67,45,45,0,0,1,.95-6.23,26.89,26.89,0,0,1,4.74-10.59,16.31,16.31,0,0,1,8.28-5.87,14,14,0,0,1,7.59,0,16.89,16.89,0,0,1,4.17,1.77l1.09,0.71,0.12,0.08A2.65,2.65,0,0,1,474.26,128Z"/><path class="cls-4" d="M625.05,153.67a17.72,17.72,0,0,1-2.3,3.81,19.23,19.23,0,0,1-3.2,3.27,14.1,14.1,0,0,1-4.63,2.54,9.74,9.74,0,0,1-3.28.52,9.2,9.2,0,0,1-3.77-.82,9.78,9.78,0,0,1-3-2.18l-0.15-.16,0,0-0.15-.18,0,0-0.16-.19-0.31-.38-0.32-.4-0.4-.57a22.77,22.77,0,0,1-1.35-2.17c-0.36-.71-0.74-1.41-1-2.13a29,29,0,0,1-1.46-4.28c-0.37-1.42-.66-2.84-0.9-4.25a80.41,80.41,0,0,1-.68-16.45l0.2-4,0.26-4,0.29-3.91,0.13-1.9,0-.46V115c0-.27,0,0.35,0,0.28v0a2.87,2.87,0,0,0,.16.73,2.77,2.77,0,0,0,.22.48,3,3,0,0,0,.65.79,3,3,0,0,0,4.67-1.08l-0.11.24c-1.79,3.45-3.61,6.92-5.32,10.42L594,137.32l-1.24,2.62-0.6,1.31-0.3.66,0,0v0h0l0.08-.2,0,0.09-0.06.17-0.13.34-1,2.71-0.95,2.74c-1.24,3.66-2.42,7.39-3.54,11.08l0,0.16-0.08.2A4.06,4.06,0,0,1,579,160a4,4,0,0,1-.6-1.36,4.7,4.7,0,0,1-.11-1l0-2.09,0-4.19V143c0-5.59,0-11.17-.07-16.76,0-2.79,0-5.59-.08-8.38l-0.14-4.19,0-1,0-.52V112c0-.27,0,0.33,0,0.25v-0.06a1.37,1.37,0,0,0,0,.17,2.56,2.56,0,0,0,.16.59l0.08,0.19a2.9,2.9,0,0,0,.21.36,2.7,2.7,0,0,0,.58.6,2.66,2.66,0,0,0,2.89.24,2.74,2.74,0,0,0,1.17-1.19,2.28,2.28,0,0,0,.14-0.32l0.06-.2v0l0,0.13-0.11.5-0.07.42c-0.43,2.54-.75,5.38-1.15,8.12s-0.84,5.54-1.4,8.3c-1.08,5.53-2.17,11.09-3.78,16.62a67.31,67.31,0,0,1-2.92,8.31c-0.3.69-.65,1.39-1,2.09l-0.6,1.05-0.18.29-0.24.36c-0.16.22-.32,0.43-0.5,0.64a7.25,7.25,0,0,1-2.88,2.08,5.48,5.48,0,0,1-2.24.35,5.34,5.34,0,0,1-2.22-.65,7.09,7.09,0,0,1-2.49-2.43,13.39,13.39,0,0,1-1.19-2.39,27,27,0,0,1-1.24-4.5,68.63,68.63,0,0,1-1-8.67c-0.18-2.86-.25-5.7-0.26-8.53a56.73,56.73,0,0,0-.37-8.48,2.66,2.66,0,1,1,5.29-.31v0.42q-0.12,4.15,0,8.29c0.11,2.75.27,5.5,0.55,8.2a61.58,61.58,0,0,0,1.24,7.91,21.56,21.56,0,0,0,1.12,3.51,7.62,7.62,0,0,0,.72,1.31,1.21,1.21,0,0,0,.43.45,0.8,0.8,0,0,0-.5-0.08,2.8,2.8,0,0,0,.39-0.4l0.13-.19,0-.08,0-.06,0-.1,0.4-.79c0.25-.55.5-1.12,0.73-1.71a61.28,61.28,0,0,0,2.28-7.6c1.26-5.27,2.29-10.69,3.19-16.15,0.43-2.74.94-5.47,1.43-8.22,0.24-1.38.56-2.74,0.84-4.13s0.59-2.75,1-4.24l0.16-.6,0.15-.51,0-.13v0c0-.14.05-0.17,0.08-0.26a4.21,4.21,0,0,1,.19-0.44,3.62,3.62,0,0,1,5.44-1.25,3.6,3.6,0,0,1,.76.79,3.4,3.4,0,0,1,.28.48l0.11,0.25c0,0.11.08,0.23,0.12,0.35s0.06,0.24.08,0.36l0,0.23v0.07c0-.05,0,0.56,0,0.32V112l0,0.52,0,1,0,4.19c0,2.79.1,5.59,0.14,8.38,0.1,5.59.2,11.17,0.37,16.75l0.22,8.38,0.09,4.19,0,2.09a2.57,2.57,0,0,0-.45-1.33,2.59,2.59,0,0,0-1.49-1,2.56,2.56,0,0,0-1.76.18,2.61,2.61,0,0,0-1.26,1.32l-0.13.35c1.13-3.81,2.3-7.56,3.55-11.33l1-2.82,1-2.82,0.13-.34,0.06-.17,0-.09,0.13-.3,0.31-.68,0.62-1.36,1.26-2.69L593,123.77q1.29-2.65,2.63-5.28c0.87-1.76,1.82-3.48,2.75-5.22l-0.11.24a3.81,3.81,0,0,1,6-1.38,3.8,3.8,0,0,1,.81,1,4,4,0,0,1,.27.6,4,4,0,0,1,.19.86v0.88l0,0.52-0.14,2-0.32,3.91c-0.22,2.59-.37,5.15-0.51,7.71a77.62,77.62,0,0,0,.43,15.16c0.18,1.23.41,2.45,0.71,3.65a23,23,0,0,0,1.12,3.48,17.59,17.59,0,0,0,1.63,3.11l0.22,0.35,0.29,0.38,0.3,0.39,0.15,0.19,0,0h0l0,0v0l0.06,0.06a3.18,3.18,0,0,0,3.68.95,9.49,9.49,0,0,0,3-1.58,17.21,17.21,0,0,0,2.68-2.49,15.85,15.85,0,0,0,1.15-1.46,10.88,10.88,0,0,0,1-1.53,2.54,2.54,0,0,1,4.61,2.13Z"/><path class="cls-5" d="M559.57,128.69s-3.25-6-9.25-6c-7.75,0-17.75,11.25-17.75,24.5,0,9.75,4.5,12.33,7.75,12.5C547.56,160.07,559.57,144.94,559.57,128.69Z"/><path class="cls-4" d="M620.67,150c1.45-1.85,2.87-3.84,4.18-5.82a59.89,59.89,0,0,0,3.63-6,28.85,28.85,0,0,0,1.33-3,26.44,26.44,0,0,0,.89-3.18,31.29,31.29,0,0,0,.72-6.63,14.81,14.81,0,0,0-.29-3,4,4,0,0,0-.73-1.76c-0.09-.09-0.07-0.05-0.09-0.07a1,1,0,0,0-.39,0l-0.45.08-0.13,0a3.81,3.81,0,0,0-.43.16,4.33,4.33,0,0,0-.9.55,10.7,10.7,0,0,0-3,4.67,28.44,28.44,0,0,0-1.49,6.46c-0.14,1.13-.23,2.27-0.27,3.42a27.48,27.48,0,0,0,0,3.3,46.72,46.72,0,0,0,1.21,6.79,40.22,40.22,0,0,0,2.19,6.48,18.06,18.06,0,0,0,3.33,5.24,7.21,7.21,0,0,0,2,1.5,4.9,4.9,0,0,0,1,.36,4.38,4.38,0,0,0,.54.09l0.28,0h0.18l0.45,0,0.12,0a4.79,4.79,0,0,0,.49-0.11,5.79,5.79,0,0,0,1.07-.44,10.85,10.85,0,0,0,2.26-1.67,28.08,28.08,0,0,0,4.13-5.15,63.87,63.87,0,0,0,3.46-6.13l-0.15.34a167,167,0,0,0,4.67-16.43c1.37-5.61,2.63-11.26,3.82-16.94q3.56-17,6.42-34.21c1-5.72,1.92-11.44,2.75-17.17,0.41-2.86.8-5.73,1.14-8.58s0.63-5.73.72-8.42a15.35,15.35,0,0,0,0-1.77l0-.17a1.34,1.34,0,0,0,.06.18l0,0.09,0.1,0.19a2.68,2.68,0,0,0,.45.55,2.88,2.88,0,0,0,.56.4,3.06,3.06,0,0,0,.79.29,3.87,3.87,0,0,0,.93,0,3.4,3.4,0,0,0,1-.3,2.26,2.26,0,0,0,.85-0.71,0.3,0.3,0,1,1,0,0,13.76,13.76,0,0,0-.57,1.63c-0.19.64-.37,1.31-0.55,2-0.69,2.72-1.28,5.55-1.85,8.37-1.11,5.66-2,11.39-2.92,17.12q-2.63,17.2-4.45,34.52c-0.6,5.77-1.14,11.54-1.55,17.3s-0.72,11.54-.79,17.27c0,2.86,0,5.72.16,8.53a40.83,40.83,0,0,0,1.09,8,8.85,8.85,0,0,0,.55,1.51c0.18,0.4.44,0.6,0.23,0.43A1.17,1.17,0,0,0,659,160h0.27c0.06,0-.05,0-0.07,0s-0.05,0,0,0a2.41,2.41,0,0,0,.84-0.49,12.81,12.81,0,0,0,2.27-2.65c0.73-1.07,1.43-2.25,2.09-3.45a82.52,82.52,0,0,0,3.58-7.65c1.1-2.63,2.1-5.33,3-8.06s1.79-5.48,2.53-8.27a78.79,78.79,0,0,0,1.83-8.43,2.64,2.64,0,0,1,5.22.82q0,0.13-.05.26l0,0.14c-0.75,2.88-1.48,5.71-2.26,8.55s-1.59,5.66-2.43,8.49A117.87,117.87,0,0,1,669.51,156a36.53,36.53,0,0,1-2.28,4.11,18.48,18.48,0,0,1-3.36,4,8.42,8.42,0,0,1-2.92,1.67,5.89,5.89,0,0,1-1.09.24l-0.61.06H659a5,5,0,0,1-2.64-.75,7,7,0,0,1-2.5-2.91,14.76,14.76,0,0,1-1-2.58,46.14,46.14,0,0,1-1.31-9.29c-0.17-3-.2-6-0.17-8.94,0.07-5.92.39-11.79,0.81-17.64s1-11.69,1.58-17.5q1.88-17.46,4.6-34.79,1.35-8.67,3-17.33c0.55-2.89,1.12-5.78,1.83-8.71,0.18-.73.37-1.47,0.59-2.23a18.69,18.69,0,0,1,.87-2.49,5.68,5.68,0,0,1,.57-1,3.51,3.51,0,0,1,1.24-1.09,3.89,3.89,0,0,1,1.08-.34,4,4,0,0,1,1.07,0,3.08,3.08,0,0,1,.92.34,3.4,3.4,0,0,1,.67.48,3.58,3.58,0,0,1,.62.77L671,40.42l0.1,0.22a4.77,4.77,0,0,1,.23.7,7.59,7.59,0,0,1,.16.91,20.42,20.42,0,0,1,.1,2.6c-0.06,3.13-.35,6-0.65,9s-0.66,5.85-1,8.76c-0.76,5.82-1.62,11.6-2.53,17.38q-2.85,17.31-6.37,34.5c-1.19,5.73-2.43,11.46-3.81,17.17a172,172,0,0,1-4.91,17.17l-0.06.16-0.09.18a70.49,70.49,0,0,1-3.84,6.79,34.55,34.55,0,0,1-5.18,6.4,17.48,17.48,0,0,1-3.73,2.72,12.52,12.52,0,0,1-2.38,1,11.34,11.34,0,0,1-1.34.29l-0.81.09-0.48,0H633.6c-0.22,0-.44,0-0.65,0a11.15,11.15,0,0,1-1.3-.21,11.68,11.68,0,0,1-2.48-.85,13.94,13.94,0,0,1-4-2.88,24.3,24.3,0,0,1-4.67-7.23,46.84,46.84,0,0,1-2.54-7.6,53.14,53.14,0,0,1-1.35-7.84,33.49,33.49,0,0,1,0-4.13q0.08-2,.33-4a35,35,0,0,1,1.9-8,21.25,21.25,0,0,1,1.94-3.94,14,14,0,0,1,3.21-3.61,10.91,10.91,0,0,1,2.28-1.36,10.1,10.1,0,0,1,1.31-.48l0.77-.19,0.47-.08a7.39,7.39,0,0,1,3.3.15,6.73,6.73,0,0,1,3,1.86,10.11,10.11,0,0,1,2.37,4.9,21.18,21.18,0,0,1,.42,4.37,34.51,34.51,0,0,1-1,8.09,32.7,32.7,0,0,1-1.21,3.93,29.69,29.69,0,0,1-1.77,3.71,65.32,65.32,0,0,1-4.29,6.5c-1.57,2-3.18,4-4.93,5.87l0,0A2.64,2.64,0,0,1,620.67,150Z"/><path class="cls-4" d="M681.53,115.07l-0.12,1-0.31,2.87c-0.25,2.48-.57,6-0.79,10.28a118.3,118.3,0,0,0,0,14.35,30.28,30.28,0,0,0,1.27,7.28,6.67,6.67,0,0,0,.58,1.25,3.27,3.27,0,0,1,.26.35,0.61,0.61,0,0,0-.22-0.08,0.29,0.29,0,0,0-.08,0l-0.26,0H682l0.13,0,0.27,0c0.16,0,.39,0,0.5-0.07l0.14-.07a1.08,1.08,0,0,0,.18-0.05l0.3-.13a14.72,14.72,0,0,0,5-4.55,50.34,50.34,0,0,0,4.19-6.57,128.18,128.18,0,0,0,6.06-13.06c1.6-4,2.84-7.31,3.71-9.67l1.36-3.73a3.5,3.5,0,0,1,6.62,2.27l0,0.14-1.22,3.79c-0.8,2.42-2,5.87-3.51,10a120.65,120.65,0,0,1-6.16,14,57.55,57.55,0,0,1-4.74,7.68,27.45,27.45,0,0,1-3.32,3.78,17.39,17.39,0,0,1-4.81,3.28l-0.76.32a9.27,9.27,0,0,1-1,.29l-1,.24c-0.26,0-.38.05-0.58,0.08l-0.27,0-0.13,0h-0.1l-0.42,0a7.71,7.71,0,0,1-1.35-.07,7.45,7.45,0,0,1-2.62-.88,9,9,0,0,1-3.1-3,14.57,14.57,0,0,1-1.36-2.82,27.84,27.84,0,0,1-1.23-4.91c-0.26-1.55-.42-3-0.54-4.48-0.23-2.89-.29-5.62-0.29-8.19s0.12-5,.32-7.19,0.43-4.23.69-6,0.47-3.33.75-4.59,0.46-2.26.62-2.94l0.27-1.05,0.1-.4A3.49,3.49,0,0,1,681.53,115.07Z"/><path class="cls-4" d="M711.25,116.92l0.12,6c0,1.91.12,4.19,0.08,6.89s0,5.72-.09,9-0.15,6.86-.44,10.64c-0.12,1.89-.22,3.83-0.38,5.81L710,161.3c-0.18,2.06-.52,4.15-0.77,6.26s-0.64,4.25-1,6.4-0.82,4.31-1.3,6.48-1.07,4.32-1.64,6.48c-0.27,1.08-.64,2.15-1,3.21l-1.07,3.19c-0.87,2.09-1.6,4.2-2.65,6.2a55.72,55.72,0,0,1-3.26,5.88l-2,2.73c-0.69.88-1.47,1.7-2.19,2.54A23.4,23.4,0,0,1,682,217.54a21,21,0,0,1-11.8-.51,28.69,28.69,0,0,1-8.49-4.65l-1.59-1.32c-0.5-.44-0.94-0.9-1.38-1.32-0.9-.83-1.6-1.71-2.28-2.46a37.31,37.31,0,0,1-2.79-3.74l-0.9-1.38a2.21,2.21,0,0,1,3.66-2.46l0.09,0.13,0.84,1.21a32.84,32.84,0,0,0,2.56,3.25,29.37,29.37,0,0,0,2.06,2.1c0.4,0.36.79,0.75,1.23,1.12l1.4,1.1a23.85,23.85,0,0,0,7.11,3.67,15.83,15.83,0,0,0,8.91.18,18,18,0,0,0,8.41-5.58c0.58-.72,1.21-1.41,1.77-2.17l1.62-2.39a50,50,0,0,0,2.75-5.3c0.9-1.81,1.52-3.8,2.27-5.72l0.91-3c0.3-1,.62-2,0.85-3,0.48-2.05,1-4.08,1.39-6.17s0.81-4.13,1.07-6.21,0.63-4.12.81-6.17,0.47-4.06.59-6.06l0.4-5.89c0.1-1.93.14-3.82,0.22-5.66,0.18-3.67.11-7.17,0.15-10.39s-0.11-6.15-.14-8.76-0.18-4.92-.25-6.81l-0.28-6a4,4,0,0,1,8.06-.37S711.25,116.89,711.25,116.92Z"/><path class="cls-4" d="M216.73,148.82a90.3,90.3,0,0,0,6.65-9.69,34.18,34.18,0,0,0,2.46-5,30.11,30.11,0,0,0,1.62-10.74,13.1,13.1,0,0,0-.31-2.41,4.19,4.19,0,0,0-.62-1.53c-0.22-.22-0.06-0.1-0.24-0.15a1.29,1.29,0,0,0-.21,0h0l0.12,0h0l-0.19,0-0.38.07a2.12,2.12,0,0,1-.25.09,3.12,3.12,0,0,0-.38.16,6.73,6.73,0,0,0-2.79,2.91,26.16,26.16,0,0,0-2.71,10.36c-0.08.94-.12,1.88-0.13,2.83,0,0.46,0,1,0,1.4s0,0.83.1,1.27a47.2,47.2,0,0,0,1,5.61,34.46,34.46,0,0,0,4,10.31,10.71,10.71,0,0,0,3.14,3.36,5.1,5.1,0,0,0,1.71.7,4.6,4.6,0,0,0,.9.1h0.19l0.34,0c0.07,0,.11,0,0.27-0.05a8.13,8.13,0,0,0,3.62-2.19,25.84,25.84,0,0,0,3.45-4.14,68.1,68.1,0,0,0,5.59-10.19,181.51,181.51,0,0,0,8.21-22.52l0.42-1.44,0.21-.72,0.1-.36,0-.09,0.11-.34,0,0a4.31,4.31,0,0,1,.19-0.42,4,4,0,0,1,.31-0.49,4,4,0,0,1,.6-0.63,3.81,3.81,0,0,1,6.21,2.46c0,0.12,0,.24,0,0.36v0.59l0,1.53,0.08,6.12,0.16,12.23,0.16,12.23,0.08,6.12,0,3.06v1c0-.68,0-0.16,0-0.3v0.08a2.83,2.83,0,0,0-.12-0.58,3.14,3.14,0,0,0-.63-1.1,3.19,3.19,0,0,0-1.16-.81,3,3,0,0,0-1.78-.14,2.07,2.07,0,0,0-.82.35,1,1,0,0,0-.16.14,1.3,1.3,0,0,0-.23.41L256,158c0.92-1.4,1.87-3,2.73-4.58s1.67-3.2,2.41-4.84,1.35-3.24,2.07-5.09,1.51-3.58,2.29-5.34c1.56-3.47,3.18-6.9,4.81-10.31l2.47-5.1,1.25-2.55,0.32-.64,0.08-.16,0.09-.17a3.86,3.86,0,0,1,.22-0.35,3.4,3.4,0,0,1,6.17,1.8v1.07c-0.08,3.74-.09,7.43.09,11.1a84.38,84.38,0,0,0,1.16,10.85,37.82,37.82,0,0,0,3.07,10,16,16,0,0,0,2.69,4,10.39,10.39,0,0,0,1.69,1.43c0.15,0.11.31,0.19,0.46,0.29l0.54,0.29,0.46,0.22,0.51,0.22a19.15,19.15,0,0,0,9.71.67,41,41,0,0,0,10.11-3.07,55.84,55.84,0,0,0,17.57-12.24A35.35,35.35,0,0,0,335,136.9l0.28-.58,0.27-.6c0.18-.42.39-0.88,0.55-1.28q0.5-1.2,1-2.49,0.9-2.54,1.54-5.17a55.37,55.37,0,0,0,1.51-10.69,39.42,39.42,0,0,0-.09-5.4,24.63,24.63,0,0,0-.36-2.66c-0.07-.44-0.17-0.87-0.28-1.29a9,9,0,0,0-.35-1.17A2.66,2.66,0,1,1,344.1,104l0.09,0.45c0.23,1.11.36,2,.49,3s0.21,2,.27,3c0.12,2,.15,3.93.08,5.89a60.32,60.32,0,0,1-1.55,11.66q-0.67,2.87-1.63,5.67c-0.32.92-.67,1.86-1,2.8-0.18.48-.37,0.88-0.56,1.32l-0.3.69-0.33.7a40.41,40.41,0,0,1-6.92,9.84,58.69,58.69,0,0,1-8.93,7.73,61.87,61.87,0,0,1-10.23,5.87,46.36,46.36,0,0,1-11.43,3.56,24.52,24.52,0,0,1-12.58-.88c-0.26-.11-0.51-0.2-0.79-0.32l-0.81-.38-0.7-.38c-0.25-.15-0.5-0.29-0.74-0.46a16,16,0,0,1-2.64-2.18,21.54,21.54,0,0,1-3.72-5.3,43.32,43.32,0,0,1-3.69-11.5,119,119,0,0,1-1.58-23.09V120.8a1.23,1.23,0,0,0,0,.14,2.63,2.63,0,0,0,4.52,1.72,2.69,2.69,0,0,0,.29-0.35,2.85,2.85,0,0,0,.17-0.28l0,0,0,0-0.08.16-0.31.63-1.22,2.54-2.41,5.09c-1.59,3.4-3.15,6.8-4.65,10.21-0.73,1.69-1.49,3.45-2.12,5.06s-1.33,3.63-2.12,5.41-1.63,3.58-2.54,5.32-1.85,3.4-3,5.17l0.29-.54a5.41,5.41,0,0,1-1.1,1.65,5.32,5.32,0,0,1-.74.64,4.13,4.13,0,0,1-1.5.69,3.57,3.57,0,0,1-2.15-.15,3.53,3.53,0,0,1-2-2.18,3.83,3.83,0,0,1-.16-0.67v-0.11l0-.39v-1l0-3.06-0.09-6.12-0.19-12.23L253.45,126l-0.09-6.12,0-1.53v-0.48s0-.09,0,0a2.43,2.43,0,0,0,0,.27A2.91,2.91,0,0,0,258.1,120a3,3,0,0,0,.73-0.9,3.12,3.12,0,0,0,.15-0.33l0,0,0.08-.25,0,0.09-0.11.37-0.21.75-0.43,1.49a181.33,181.33,0,0,1-8.52,23.42,74.52,74.52,0,0,1-6.18,11.23,32.37,32.37,0,0,1-4.39,5.23,18.32,18.32,0,0,1-3,2.29,12.14,12.14,0,0,1-3.9,1.58,10.14,10.14,0,0,1-1.25.18l-0.43,0H230a11.36,11.36,0,0,1-2.15-.23,11.88,11.88,0,0,1-4-1.6,17.32,17.32,0,0,1-5.25-5.45,40.19,40.19,0,0,1-4.85-12.42,53.74,53.74,0,0,1-1.09-6.45c-0.06-.57-0.1-1.11-0.12-1.78s0-1.11,0-1.66c0-1.09.07-2.19,0.16-3.28a41.08,41.08,0,0,1,1.07-6.57,25.93,25.93,0,0,1,2.55-6.53,15.94,15.94,0,0,1,2.3-3.11,11.42,11.42,0,0,1,3.46-2.49,9.64,9.64,0,0,1,1-.42,12.16,12.16,0,0,1,1.23-.33l0.38-.06,0.19,0,0.26,0,0.16,0a7.81,7.81,0,0,1,1.32,0,6.79,6.79,0,0,1,2.83.82,7,7,0,0,1,2.15,1.86,10.44,10.44,0,0,1,1.81,4,19.49,19.49,0,0,1,.47,3.65,31.26,31.26,0,0,1-.55,6.75,33.6,33.6,0,0,1-1.82,6.48,41.21,41.21,0,0,1-3.12,5.84,76.27,76.27,0,0,1-7.72,10A2.64,2.64,0,0,1,216.73,148.82Z"/><path class="cls-5" d="M166.5,127.38s-3.25-6-9.25-6c-7.75,0-17.75,11.25-17.75,24.5,0,9.75,4.5,12.33,7.75,12.5C154.49,158.76,166.5,143.63,166.5,127.38Z"/><path class="cls-4" d="M220.38,151.76l-0.2.42c-0.13.27-.32,0.7-0.6,1.21a39.22,39.22,0,0,1-2.71,4.51,22.56,22.56,0,0,1-2.62,3.08,14.74,14.74,0,0,1-4.47,3,12.29,12.29,0,0,1-6.63.69l-0.42-.08-0.21,0-0.29-.07-0.31-.08-0.52-.16a9.63,9.63,0,0,1-1-.41,9.79,9.79,0,0,1-1-.53,9.39,9.39,0,0,1-3-3.23,12.77,12.77,0,0,1-1.31-3.63,21.77,21.77,0,0,1-.43-3.43,55.85,55.85,0,0,1,.22-6.61c0.15-2.2.46-4.4,0.68-6.65,0.09-1.13.17-2.26,0.23-3.41,0-.48.07-1.16,0.07-1.64s0-1,0-1.53a13.59,13.59,0,0,0-.37-2.85,3.72,3.72,0,0,0-.88-1.75A2.57,2.57,0,0,0,193,128l-0.8-.1-0.5-.07-0.14,0h-0.07l-0.21,0-0.11,0-0.2-.05a6.19,6.19,0,0,1-1.05-.42,7.25,7.25,0,0,1-.79-0.47,8.3,8.3,0,0,1-1.22-1,14.81,14.81,0,0,1-2.7-4,16.19,16.19,0,0,1-.82-2l-0.33-1-0.15-.49,0-.12c0-.09.19,0.57,0.08,0.26l0-.05,0-.05a2.89,2.89,0,0,0,.13.32,3.48,3.48,0,0,0,.36.58,3.19,3.19,0,0,0,1.6,1.08,3,3,0,0,0,1.76,0,3.16,3.16,0,0,0,1.58-1.12,3.05,3.05,0,0,0,.45-0.86,2.49,2.49,0,0,0,.11-0.4,0.28,0.28,0,1,0,0-.09v0.06l-0.31,1.82c-0.22,1.25-.44,2.49-0.72,3.7-1,4.87-2.26,9.67-3.43,14.4s-2.42,9.36-3.35,13.86l-0.17.84-0.11.5-0.1.42c-0.1.48-.37,1.33-0.57,1.94A13.08,13.08,0,0,1,179.2,159a9.79,9.79,0,0,1-7.45,4.24,8.65,8.65,0,0,1-4.46-1.08,8.83,8.83,0,0,1-3.14-3.15,10.58,10.58,0,0,1-1.32-3.76,13.49,13.49,0,0,1-.16-1.81c0-.58,0-1.19,0-1.61,0.21-3.69.44-7.11,0.66-10.12s0.43-5.65.7-7.83a62.81,62.81,0,0,1,1.12-7.11,2.36,2.36,0,1,1,4.57,1.22c0-.15-0.07.37-0.18,1.47s-0.24,2.76-.37,4.88l-0.47,7.71q-0.23,4.49-.44,10.05c0,0.51,0,.83,0,1.19a7.84,7.84,0,0,0,.11,1,4.91,4.91,0,0,0,.63,1.75,3.32,3.32,0,0,0,2.66,1.57,4.69,4.69,0,0,0,3.72-1.63,7.45,7.45,0,0,0,1.29-2.25,3.6,3.6,0,0,0,.2-0.61c0-.11.06-0.19,0.09-0.32l0.08-.42,0.08-.42,0.06-.35,0.14-.86c0.76-4.6,1.35-9.35,2-14.16l2-14.55c0.16-1.22.35-2.41,0.54-3.6l0.27-1.83,0-.26a5.49,5.49,0,0,1,.17-0.62,4.7,4.7,0,0,1,.67-1.27,4.63,4.63,0,0,1,7.34-.08,4.5,4.5,0,0,1,.49.77c0.07,0.13.15,0.32,0.19,0.42l0,0.05,0.14,0.43,0,0.1,0.1,0.4,0.22,0.78,0.45,1.49a12.23,12.23,0,0,0,1,2.28,1,1,0,0,1,.11.21s0,0,0,0l-0.22-.05c-0.07,0,0,0,0,0l0.11,0-0.1,0h0l0.08,0,0.39,0.11,1,0.26a12.79,12.79,0,0,1,2.38.91,7.89,7.89,0,0,1,2.29,1.79,9.71,9.71,0,0,1,2.13,4.59,19.31,19.31,0,0,1,.3,4.1c0,0.65,0,1.27-.11,1.92s-0.11,1.13-.19,1.78c-0.16,1.11-.26,2.22-0.32,3.32-0.11,2.19-.28,4.32-0.31,6.37a45.67,45.67,0,0,0,.17,5.82,11.76,11.76,0,0,0,1.12,4.44,3,3,0,0,0,1,1.08,3.14,3.14,0,0,0,.6.31,1,1,0,0,0,.16.06l0.31,0.09,0.41,0.09a6.39,6.39,0,0,0,3.4-.11,13.94,13.94,0,0,0,5.35-3.81c1.39-1.48,2.5-2.74,3.25-3.61l1.15-1.34a1.83,1.83,0,0,1,3,2Z"/><path class="cls-4" d="M92.5,5.25L92.39,7.71l-0.13,3c0,1.16-.12,2.5-0.24,4s-0.27,3.19-.42,5l-0.65,5.87c-0.5,4.18-1.14,8.89-2,14-0.39,2.56-.9,5.21-1.38,8L85.92,56c-1.22,5.79-2.56,11.89-4,18.15s-3,12.72-4.65,19.27L72.4,113.24,70,123.14c-0.74,3.32-1.54,6.65-2.21,9.9-1.37,6.5-2.79,12.95-4,19.21s-2.34,12.33-3.36,18.09-2,11.21-3,16.23-1.86,9.63-2.65,13.71-1.45,7.65-2.1,10.57-1.07,5.23-1.43,6.79L50.78,220v0a2.69,2.69,0,0,1-5.31-.71l0.11-2.48c0.07-1.61.26-4,.47-7s0.57-6.64,1-10.8,0.92-8.87,1.64-14,1.54-10.62,2.47-16.46,2.08-12,3.31-18.29q0.89-4.75,1.9-9.64c0.64-3.25,1.37-6.56,2.12-9.89s1.56-6.6,2.34-9.93l2.52-10c1.68-6.65,3.54-13.26,5.29-19.76s3.51-12.88,5.12-19.06S76.86,60,78.21,54.29s2.49-11.06,3.52-16,1.78-9.56,2.55-13.61l1-5.69c0.26-1.75.47-3.37,0.72-4.82l0.34-2.07,0.25-1.86L87,7.29l0.36-2.44V4.75A2.59,2.59,0,0,1,92.5,5.25Z"/><path class="cls-4" d="M237.75,30.08s-0.28.39-.84,1.1-1.41,1.77-2.59,3.07a57.31,57.31,0,0,1-4.54,4.61c-1.87,1.76-4.09,3.71-6.63,5.75l-4,3.29-4.44,3.53c-3.08,2.47-6.47,5-10.08,7.8-7.27,5.48-15.53,11.56-24.73,17.93-18.36,12.8-40.19,27.1-64.48,41.11-3,1.77-6.15,3.43-9.26,5.16l-1.17.65-1.22.64c-0.86.45-1.68,0.86-2.51,1.26-1.66.81-3.32,1.58-5,2.33-6.67,3-13.47,5.7-20.36,8.32-13.8,5.2-27.93,10.07-42.46,14.13-3.64,1-7.3,2-11.06,2.77-1.88.41-3.77,0.78-5.73,1.09a43.13,43.13,0,0,1-6.23.6,14.49,14.49,0,0,1-4.14-.49,6.79,6.79,0,0,1-.75-0.27,5.61,5.61,0,0,1-.83-0.4,8.1,8.1,0,0,1-.94-0.62,8.19,8.19,0,0,1-1-1,4,4,0,0,1-.35-0.5l-0.09-.15s-0.22-.37-0.3-0.56-0.21-.45-0.3-0.68a7.21,7.21,0,0,1-.42-2,8.54,8.54,0,0,1,.44-3.14,11.8,11.8,0,0,1,1-2.15,17.11,17.11,0,0,1,2.3-3,35.92,35.92,0,0,1,10.35-7.33C30,125.76,46.9,126,60.86,131.52a68.17,68.17,0,0,1,10,4.84c0.79,0.48,1.55.92,2.34,1.44l2.14,1.38,4.24,2.75L95.89,153c2.62,1.8,5.21,3.49,7.76,5.2s5.11,3.22,7.6,4.79,5,2.94,7.52,4.24l3.73,1.89,1.84,0.93c0.61,0.3,1.24.55,1.86,0.82a116,116,0,0,0,28,8.78c0.54,0.11,1.07.23,1.6,0.33l1.59,0.21,3.11,0.41,3,0.4c0.49,0.06,1,.14,1.46.19l1.44,0.08,5.48,0.32,2.56,0.15c0.83,0,1.65,0,2.45,0l8.5-.1,6.28-.49,5.24-.41,0.23,0a3,3,0,0,1,.53,6l-5.4.54-6.48.64-8.83.29c-0.83,0-1.68.07-2.55,0.06l-2.68-.1-5.75-.22-1.52-.06c-0.51,0-1-.11-1.54-0.16l-3.17-.35-3.29-.37-1.69-.19c-0.56-.09-1.13-0.21-1.7-0.31L146,185.18c-2.4-.57-4.84-1.27-7.37-1.93a128.08,128.08,0,0,1-15.39-5.63c-0.66-.28-1.32-0.54-2-0.85l-1.95-1-3.95-1.94c-2.65-1.33-5.23-2.86-7.92-4.32s-5.28-3.16-7.92-4.84-5.32-3.41-8-5.2l-16.26-10.9L71,145.89l-2.15-1.37c-0.65-.43-1.38-0.84-2.07-1.25a60.15,60.15,0,0,0-8.83-4.2,51.43,51.43,0,0,0-19.46-3.38A47.29,47.29,0,0,0,19,140.33a28,28,0,0,0-7.93,5.52,9,9,0,0,0-1.2,1.56,3.68,3.68,0,0,0-.28.58c0,0.13,0,.17,0,0a1.06,1.06,0,0,0-.08-0.35,1.25,1.25,0,0,0-.1-0.23,0.64,0.64,0,0,0-.1-0.14l0.09,0.15c-0.05-.07.25,0.36-0.09-0.12a1.4,1.4,0,0,0-.6-0.53,7.57,7.57,0,0,0,1.7.14,35.64,35.64,0,0,0,5-.5c1.74-.27,3.5-0.62,5.26-1,3.53-.77,7.07-1.68,10.61-2.65C45.41,138.84,59.42,134,73,128.92c6.78-2.58,13.48-5.25,19.91-8.13,1.61-.72,3.2-1.46,4.75-2.21l2.28-1.14,1.14-.6,1.15-.64c3.07-1.71,6.14-3.35,9.15-5.08,24.15-13.58,46-27.55,64.34-40,9.19-6.22,17.44-12.16,24.69-17.5,3.61-2.69,7-5.2,10.05-7.6l4.42-3.43,4-3.19c2.53-2,4.71-3.85,6.69-5.36,1-.75,1.91-1.46,2.78-2.06s1.64-1.23,2.36-1.73c1.42-1,2.59-1.71,3.34-2.22s1.19-.71,1.19-0.71h0A1.93,1.93,0,0,1,237.75,30.08Z"/></svg>